<svg width="460" height="360" viewBox="0 0 460 360" fill="none" xmlns="http://www.w3.org/2000/svg">
<rect width="460" height="360" fill="white"/>
<line x1="20.15" x2="20.15" y2="360" stroke="#6020A9" stroke-width="0.3"/>
<line x1="40.15" x2="40.15" y2="360" stroke="#6020A9" stroke-width="0.3"/>
<line x1="60.15" x2="60.15" y2="360" stroke="#6020A9" stroke-width="0.3"/>
<line x1="80.15" x2="80.15" y2="360" stroke="#6020A9" stroke-width="0.3"/>
<line x1="100.15" x2="100.15" y2="360" stroke="#6020A9" stroke-width="0.3"/>
<line x1="120.15" x2="120.15" y2="360" stroke="#6020A9" stroke-width="0.3"/>
<line x1="140.15" x2="140.15" y2="360" stroke="#6020A9" stroke-width="0.3"/>
<line x1="160.15" x2="160.15" y2="360" stroke="#6020A9" stroke-width="0.3"/>
<line x1="180.15" x2="180.15" y2="360" stroke="#6020A9" stroke-width="0.3"/>
<line x1="200.15" x2="200.15" y2="360" stroke="#6020A9" stroke-width="0.3"/>
<line x1="220.15" x2="220.15" y2="360" stroke="#6020A9" stroke-width="0.3"/>
<line x1="240.15" x2="240.15" y2="360" stroke="#6020A9" stroke-width="0.3"/>
<line x1="260.15" x2="260.15" y2="360" stroke="#6020A9" stroke-width="0.3"/>
<line x1="280.15" x2="280.15" y2="360" stroke="#6020A9" stroke-width="0.3"/>
<line x1="300.15" x2="300.15" y2="360" stroke="#6020A9" stroke-width="0.3"/>
<line x1="320.15" x2="320.15" y2="360" stroke="#6020A9" stroke-width="0.3"/>
<line x1="340.15" x2="340.15" y2="360" stroke="#6020A9" stroke-width="0.3"/>
<line x1="360.15" x2="360.15" y2="360" stroke="#6020A9" stroke-width="0.3"/>
<line x1="380.15" x2="380.15" y2="360" stroke="#6020A9" stroke-width="0.3"/>
<line x1="400.15" x2="400.15" y2="360" stroke="#6020A9" stroke-width="0.3"/>
<line x1="420.15" x2="420.15" y2="360" stroke="#6020A9" stroke-width="0.3"/>
<line x1="440.15" x2="440.15" y2="360" stroke="#6020A9" stroke-width="0.3"/>
<line y1="20.85" x2="460" y2="20.85" stroke="#6020A9" stroke-width="0.3"/>
<line y1="40.85" x2="460" y2="40.85" stroke="#6020A9" stroke-width="0.3"/>
<line y1="60.85" x2="460" y2="60.85" stroke="#6020A9" stroke-width="0.3"/>
<line y1="80.85" x2="460" y2="80.85" stroke="#6020A9" stroke-width="0.3"/>
<line y1="100.85" x2="460" y2="100.85" stroke="#6020A9" stroke-width="0.3"/>
<line y1="120.85" x2="460" y2="120.85" stroke="#6020A9" stroke-width="0.3"/>
<line y1="140.85" x2="460" y2="140.85" stroke="#6020A9" stroke-width="0.3"/>
<line y1="160.85" x2="460" y2="160.85" stroke="#6020A9" stroke-width="0.3"/>
<line y1="180.85" x2="460" y2="180.85" stroke="#6020A9" stroke-width="0.3"/>
<line y1="200.85" x2="460" y2="200.85" stroke="#6020A9" stroke-width="0.3"/>
<line y1="220.85" x2="460" y2="220.85" stroke="#6020A9" stroke-width="0.3"/>
<line y1="240.85" x2="460" y2="240.85" stroke="#6020A9" stroke-width="0.3"/>
<line y1="260.85" x2="460" y2="260.85" stroke="#6020A9" stroke-width="0.3"/>
<line y1="280.85" x2="460" y2="280.85" stroke="#6020A9" stroke-width="0.3"/>
<line y1="300.85" x2="460" y2="300.85" stroke="#6020A9" stroke-width="0.3"/>
<line y1="320.85" x2="460" y2="320.85" stroke="#6020A9" stroke-width="0.3"/>
<line y1="340.85" x2="460" y2="340.85" stroke="#6020A9" stroke-width="0.3"/>
<rect y="221" width="460" height="139" fill="url(#paint0_linear_2_82)"/>
<defs>
<linearGradient id="paint0_linear_2_82" x1="230" y1="221" x2="230" y2="360" gradientUnits="userSpaceOnUse">
<stop offset="0.00426831" stop-color="white" stop-opacity="0"/>
<stop offset="1" stop-color="white"/>
</linearGradient>
</defs>
</svg>
